<svg xmlns="http://www.w3.org/2000/svg" version="1.1" xmlns:xlink="http://www.w3.org/1999/xlink" width="1013.16px" height="827.533px"><svg xmlns="http://www.w3.org/2000/svg" version="1.1" xmlns:xlink="http://www.w3.org/1999/xlink" width="1013.16px" height="827.533px"><svg xmlns="http://www.w3.org/2000/svg" viewBox="324.191 97.665 1378.699 1125.7815" width="1013.16px" height="827.533px" preserveAspectRatio="none"><g id="object-0" transform="matrix(0.9999999999999999, 0, 0, 0.9999999999999999, 0, 0)"><path d="M 876.551 358.827 C 873.214 365.143 862.314 393.385 856.796 395.449 C 856.832 387.577 876.14 326.653 879.75 312.505 C 890.937 269.6 901.172 226.474 912.363 183.567 C 915.738 170.629 912.456 151.979 920.155 140.21 C 921.816 137.67 927.888 128.692 930.039 127.335 L 930.795 130.165 L 932.044 130.734 C 947.034 124.808 933.549 112.786 944.648 103.403 C 945.642 102.562 946.79 101.005 947.577 99.93 L 947.964 99.397 C 952.775 101.261 950.732 109.786 955.652 116.191 C 958.997 118.166 957.474 117.773 961.434 117.59 C 965.513 113.854 964.141 105.159 966.499 99.579 C 968.288 101.088 968.881 101.432 970.92 102.603 L 972.387 102.016 L 973.104 98.104 L 974.265 97.665 C 977.944 101.514 982.222 113.458 984.107 118.792 C 985.332 115.899 986.095 114.365 987.671 111.647 L 989.41 111.864 C 994.412 118.073 1003.35 145.827 1006.45 154.665 C 1026.37 167.248 1042.45 194.766 1057.37 212.901 C 1071.51 230.076 1085.11 244.848 1094.09 265.394 C 1099.37 277.479 1111.45 282.13 1108.3 297.703 L 1108.15 298.409 C 1113.12 306.726 1117.73 310.024 1126.66 312.755 C 1139.26 331.757 1156.52 346.641 1171.91 363.195 C 1212.11 406.431 1256.42 443.354 1300.17 482.797 C 1328.22 459.253 1357.62 437.464 1384.87 414.134 C 1446.41 362.002 1502.71 303.972 1552.95 240.87 C 1573.17 215.797 1592.5 192.969 1609.59 165.146 L 1612.2 167.209 C 1620.69 165.721 1621.49 163.349 1624.84 155.642 L 1625.63 156.024 C 1624.91 159.688 1622.71 166.986 1623.59 169.831 C 1625.43 170.027 1627.29 168.192 1628.68 166.849 L 1631.62 167.539 C 1631.35 169.92 1631.24 169.88 1632.14 172.233 L 1634.08 172.613 C 1639.7 169.84 1643.28 161.964 1645.85 156.601 L 1649.98 156.79 C 1653.19 156.252 1656.57 155.104 1659.21 156.086 C 1660.72 162.818 1658.67 177.794 1656.73 184.577 L 1677.96 164.175 C 1676.66 168.909 1675.15 173.975 1674.1 178.734 C 1677.88 175.043 1682.18 170.619 1686.18 167.283 C 1682.6 176.657 1680.12 182.688 1678.62 192.752 C 1681.29 189.767 1682.56 187.774 1686.32 186.501 L 1687.13 187.531 C 1684.43 203.563 1672.58 218.878 1667.23 234.276 C 1658.63 258.995 1635.81 368.926 1640.06 390.149 L 1641.02 391.031 C 1643.06 386.677 1643.69 378.801 1645.64 376.632 C 1647.47 388.561 1644.3 401.853 1643.05 413.719 C 1641.09 432.436 1638.2 451.445 1637.52 470.244 C 1637.18 479.563 1639.38 488.821 1638.13 498.437 L 1636.87 499.744 C 1635.13 498.602 1633.89 497.817 1632.05 496.85 C 1629.79 514.478 1631.51 553.447 1633.7 571.241 C 1637.45 601.753 1638.99 632.322 1643.98 662.597 C 1644.81 666.976 1636.37 674.716 1645.04 683.98 C 1648.17 683.991 1648.01 683.233 1650.89 680.783 C 1653.51 683.902 1649.71 699.418 1659.66 704.287 C 1661.31 705.095 1663.38 707.129 1664.22 709.302 C 1660.47 713.265 1660.29 711.504 1658.97 715.977 C 1659.64 719.449 1659.63 720.345 1662.13 722.753 C 1668.14 725.46 1670.85 723.601 1674.65 727.048 C 1669.59 726.824 1666.13 726.19 1661.56 728.407 L 1661.73 729.488 C 1666.09 731.689 1671.11 732.695 1675.87 733.865 C 1675.13 735.014 1674.65 735.411 1673.51 736.143 C 1674.98 738.71 1676.3 739.264 1679.23 740.064 C 1681.99 740.786 1684.74 741.463 1687.5 742.095 C 1686.84 746.179 1686.66 750.846 1683.77 753.592 C 1680.62 755.065 1679.78 755.342 1676.39 756.105 C 1679.22 759.496 1682.26 763.32 1685.35 766.417 C 1682.14 771.902 1679.47 772.611 1684.23 776.476 L 1684.29 778.041 C 1680.32 779.597 1672.54 776.895 1671.12 778.682 C 1675.75 781.397 1678.46 782.894 1682.55 786.342 C 1676.74 784.399 1667.86 780.889 1662.05 782.243 L 1661.16 783.535 C 1664.38 786.173 1670.91 788.341 1675.03 789.955 L 1674.49 790.56 C 1670.29 789.178 1662.6 785.88 1658.85 787.519 C 1659.35 793.79 1668.64 794.896 1670.33 799.943 C 1663.51 799.557 1667.27 797.122 1662.1 800.324 C 1660.04 804.146 1660.93 807.322 1661.05 812.239 C 1656.98 812.334 1656.65 808.567 1652.53 809.694 C 1648.23 820.029 1656.89 827.544 1654.64 832.847 C 1650.6 830.257 1648.26 815.122 1639.57 814.436 C 1638.25 818.009 1641.09 821.803 1641.23 827.141 C 1639.02 823.345 1637.26 818.217 1634.09 816.295 C 1630.76 817.109 1631.95 816.55 1629.44 819.579 C 1628.62 824.208 1628.09 832.604 1625.76 835.692 C 1620.99 835.962 1620.73 831.512 1617.51 832.616 L 1617.38 837.194 C 1615.4 836.213 1609.33 822.79 1606.57 818.553 C 1605.99 821.243 1605.14 826.535 1603.89 828.648 C 1602.27 825.756 1601.39 821.996 1599.53 820.657 L 1598.36 821.064 C 1587.21 824.825 1582.01 815.899 1576.6 816.786 C 1554.56 820.401 1534.06 816.347 1512.39 816.875 C 1478.13 817.711 1444.01 822.074 1409.66 823.698 C 1380.86 825.061 1350.71 830.623 1322.08 834.134 C 1157.53 853.757 995.34 889.431 837.821 940.649 C 824.422 945.094 774.002 961.927 765.113 969.708 C 764.023 972.607 763.923 973.179 763.455 976.265 C 761.582 978.665 759.4 978.796 756.33 979.604 L 755.054 981.109 C 755.458 983.963 755.602 984.308 756.696 987.004 C 754.738 986.508 755.128 986.804 754.323 984.969 L 753.997 984.92 C 751.955 985.228 751.532 985.464 749.525 984.911 L 747.921 980.052 C 745.24 971.485 737.281 972.742 730.621 975.403 C 716.891 980.89 702.987 987.433 689.524 993.495 C 690.42 997.788 691.643 999.929 690.385 1003.55 C 685.166 1004.26 686.204 1000.99 680.748 1001.94 C 678.557 1005.71 679.205 1004.72 679.097 1009.46 L 677.552 1013.17 C 674.556 1010.74 671.93 1008.19 668.178 1007.31 L 666.728 1008.3 C 666.706 1013.34 669.888 1018.27 672.269 1022.85 C 669.889 1019.84 664.616 1012.28 661.546 1010.93 C 659.31 1012.28 660.103 1011.39 658.92 1013.54 C 659.377 1018.84 659.694 1024.15 659.868 1029.46 L 658.345 1030.91 L 659.212 1032 L 656.178 1028.63 L 654.412 1028.7 C 654.751 1031.96 655.128 1034.74 655.029 1038.04 L 653.562 1038.66 C 650.03 1036.14 648.117 1027.26 644.869 1022.69 L 642.354 1021.86 L 641.303 1022.89 L 641.908 1029.86 L 640.688 1030.64 C 636.293 1028.46 636.67 1019.14 632.535 1017.06 C 630.944 1018.47 629.871 1019.5 628.383 1021.01 C 624.095 1020.72 624.247 1019.49 620.272 1017.09 C 616.575 1017.91 614.778 1020.15 611.929 1022.78 L 601.058 1020.58 C 596.795 1022.22 591.686 1024.65 587.433 1026.52 C 590.617 1022 596.428 1016.08 596.069 1011.18 C 593.67 1008.23 591.006 1007.5 587.463 1005.97 L 588.845 1002.82 L 588.039 1001.41 C 581.525 999.77 566.012 1010.07 559.41 1006.35 C 559.302 1003.59 563.393 997.394 565.039 994.435 C 560.891 997.271 555.961 999.832 551.517 1002.27 C 556.692 997.427 561.383 992.333 566.497 987.451 C 569.301 984.774 572.136 983.682 574.676 980.802 L 573.455 979.413 C 570.244 979.119 567.582 980.347 564.463 981.386 L 563.962 980.768 L 567.252 977.893 L 567.304 976.46 C 562.62 974.588 564.69 974.826 559.263 976.07 C 560.635 974.102 561.785 972.299 563.054 970.264 L 562.236 968.757 L 560.036 968.719 C 557.474 970.201 556.6 970.613 553.809 971.595 C 553.039 963.52 575.694 964.242 567.669 950.644 L 569.119 947.758 C 571.368 950.485 571.87 951.467 575.218 952.353 C 577.188 940.434 514.762 867.886 514.564 846.137 C 514.562 846.03 501.546 822.016 499.938 818.469 C 502.84 821.388 508.968 833.556 511.924 837.603 C 515.791 842.899 515.591 837.03 519.166 841.191 C 523.538 846.28 524.474 851.396 527.016 856.306 C 530.662 863.351 541.715 868.957 548.736 874.568 C 543.721 866.566 503.637 800.068 503.041 797.38 C 495.181 787.495 488.727 769.066 485.565 757.138 C 490.333 762.453 508.319 785.795 510.974 791.69 C 517.356 799.825 520.107 803.701 528.134 810.223 C 511.718 785.115 504.363 760.344 491.745 734.316 C 473.801 697.301 453.64 660.491 433.041 624.942 C 422.464 606.689 397.119 554.832 380.144 545.787 C 375.442 531.606 370.293 524.827 360.203 513.871 C 353.277 506.352 352.18 503.828 349.857 493.777 C 328.964 474.819 337.214 467.391 341.495 466.473 C 341.495 466.473 344.295 461.654 349.693 465.26 C 341.698 446.704 337.354 445.999 324.191 434.098 C 327.811 434.533 335.5 440.973 338.444 440.892 C 339.58 437.152 340.051 435.021 342.204 431.666 C 347.537 429.537 360.149 444.395 365.587 441.456 C 365.134 438.979 353.39 419.505 351.314 415.774 C 356.568 418.663 357.954 420.769 362.652 416.29 C 368.134 418.463 377.094 425.198 383.081 428.828 C 380.828 423.28 447.727 471.948 468.873 477.693 C 468.873 477.693 635.614 559.235 693.312 578.403 C 721.852 587.884 762.474 595.578 792.331 606.104 C 813.832 569.471 874.143 396.773 876.551 358.827 Z M 897.927 638.656 C 902.203 640.426 910.576 646.764 910.433 649.398 L 913.214 679.722 L 918.101 682.791 C 918.117 683.71 918.379 684.154 917.777 684.727 C 912.965 689.309 914.389 691.952 913.076 696.89 C 910.06 708.168 916.393 753.254 911.71 758.579 L 909.795 758.382 C 904.364 750.041 913.729 706.193 903.626 693.596 C 898.323 693.513 891.524 692.495 891.09 698.726 C 892.531 702.505 895.462 705.715 898.009 708.918 C 892.872 705.916 891.456 703.96 885.714 701.991 L 885.383 702.668 C 887.588 705.524 888.125 706.006 890.98 708.225 C 895.429 710.582 902.222 713.217 899.321 719.455 C 894.946 720.994 887.306 716.947 882.067 716.056 C 874.841 713.4 862.817 707.698 855.86 709.984 C 851.962 715.483 856.805 714.964 852.644 716.513 C 841.017 713.193 841.938 708.522 826.468 706.738 C 826.098 711.344 826.186 715.833 823.882 719.759 C 816.464 725.502 815.652 714.501 807.99 718.318 L 802.913 715.583 C 800.182 716.345 790.73 726.802 787.293 729.894 C 789.819 723.966 790.956 721.632 794.386 716.222 C 792.193 711.729 791.595 708.349 786.303 707.642 C 776.775 713.331 783.655 723.86 765.327 724.097 C 763.392 720.127 765.964 717.132 764.707 711.389 C 761.556 709.651 761.811 711.554 756.79 711.81 C 756.642 705.575 764.483 704.922 760.485 696.732 C 757.503 696.01 757.267 696.782 753.987 698.16 L 753.692 696.986 L 754.059 698.081 C 753.891 694.888 755.261 692.365 756.474 689.331 C 683.989 673.554 605.618 643.117 537.596 614.03 C 542.927 622.775 544.407 635.554 544.407 635.554 C 545.411 642.741 550.497 652.699 553.55 659.397 C 583.085 724.207 612.593 788.886 640.523 854.437 C 644.039 862.69 645.563 870.391 654.884 870.98 C 662.17 876.279 657.521 885.32 665.649 888.141 C 668.007 887.601 669.974 887.066 672.404 886.899 C 669.5 890.546 666.089 889.8 665.429 892.959 C 671.622 894.772 729.023 870.374 740.427 867.712 C 765.151 861.941 789.071 851.801 812.481 842.809 C 814.703 845.518 816.888 848.257 819.036 851.026 C 847.164 844.587 875.174 833.656 903.559 827.477 C 914.97 824.992 928.294 819.133 939.51 817.176 C 978.716 810.337 1016.97 798.422 1055.7 789.542 C 1137.56 771.03 1220.29 756.642 1303.6 746.432 C 1337.94 742.474 1372.89 737.854 1407.4 734.789 C 1409.22 734.627 1411.8 730.732 1412.82 729.285 C 1421.68 723.916 1510.72 720.067 1519.31 721.224 C 1525.73 722.304 1542.64 717.532 1548.43 715.048 C 1549.47 709.416 1538.96 671.848 1537.75 662.504 C 1533.56 630.661 1525.46 584.675 1529.58 553.745 C 1532.09 558.474 1531.95 567.425 1533.09 572.078 C 1534.76 578.871 1539.63 596.941 1542.76 602.206 L 1543.56 601.777 C 1546.69 592.016 1544.45 577.161 1543.99 566.755 C 1543.46 552.847 1543.11 538.934 1542.92 525.019 C 1542.54 502.956 1542.57 480.502 1542.51 458.417 C 1542.5 455.186 1539.13 447.02 1539.17 445.269 C 1539.36 434.442 1547.83 426.323 1543.65 414.49 C 1542.65 411.682 1542.97 411.097 1540.83 410.008 C 1539.56 411.874 1539.34 414.901 1538.9 417.32 C 1536.8 415.81 1538.09 410.746 1537.67 410.233 C 1535.6 407.73 1532.62 404.137 1530.53 401.622 C 1503.68 426.951 1477.5 452.332 1450.28 477.3 C 1439.62 487.084 1410.83 510.616 1403.14 520.136 L 1392.15 520.701 C 1380.68 532.587 1369.18 540.273 1358 551.51 C 1360.61 556.274 1365.39 563.958 1366.04 569.011 L 1364.9 570.014 C 1362.5 569.319 1362.08 569.236 1359.59 568.965 C 1359.16 571.9 1360.19 572.929 1361.49 576.005 L 1356.78 576.327 C 1354.97 576.626 1354.68 577.092 1353.22 578.214 L 1352.68 578.024 C 1349.12 576.799 1346.56 575.603 1343.44 576.882 C 1344.21 582.742 1351.51 588.171 1351.93 591.34 C 1346.47 589.105 1344.05 581.032 1338.14 582.818 C 1337.84 586.199 1337.96 586.602 1339.26 589.751 C 1342.39 594 1344.49 597.842 1343.81 603.355 L 1342.06 605.821 C 1339.57 606.208 1338.04 605.147 1335.68 604.071 C 1336.33 607.678 1337.13 608.375 1335.67 611.062 C 1329.46 608.523 1327.32 591.906 1317.83 594.851 C 1317.27 597.36 1318.1 599.053 1318.87 601.557 L 1318.24 602.425 L 1316.01 602.002 C 1314.72 599.572 1313.58 597.578 1312.14 595.24 L 1309.9 594.594 L 1309.06 597.429 L 1307.98 597.866 L 1308.46 598.104 C 1305.67 597.873 1304.21 595.912 1302.03 593.884 C 1301.08 597.464 1299.69 602.026 1299.24 605.618 C 1298.78 612.935 1299.24 655.928 1298.18 658.336 C 1295.41 659.604 1296.79 659.527 1293.92 658.633 C 1290.86 645.268 1296.58 617.305 1293.48 602.182 C 1285.94 601.922 1273.83 613.748 1268.2 619.024 C 1267.58 619.604 1266.96 620.191 1266.36 620.783 C 1265.69 617.855 1270.12 614.971 1269.22 610.539 L 1267.84 610.344 C 1267.06 610.96 1265.59 612.023 1264.92 612.671 C 1262.75 611.285 1263.67 612.178 1262.35 609.638 C 1263.36 606.718 1263.38 604.495 1263.65 601.433 L 1260.27 598.274 L 1259.44 597.598 C 1245.21 586.323 1243.06 611.07 1229.82 602.936 C 1228.75 600.207 1229.54 596.492 1229.64 596.551 C 1222.22 592.115 1230.04 586.343 1239.92 576.502 C 1237.64 572.756 1231.62 562.04 1228.72 559.771 L 1222.06 560.031 L 1222.59 558.991 L 1222.7 560.051 C 1222.8 559.718 1232.76 549.745 1234.5 547.451 C 1226.62 538.362 1210.81 524.579 1201.53 516.32 C 1184.27 501.15 1167.17 485.807 1150.23 470.294 C 1105.52 429.004 1065.76 382.851 1016.03 348.196 C 1010.39 344.269 1005.54 336.367 999.851 333.736 C 994.795 333.707 996.096 334.625 994.31 338.509 C 987.712 352.862 958.096 463.719 952.904 466.535 C 949.278 464.677 949.617 464.053 946.306 464.828 C 941.532 469.169 924.805 525.148 918.642 535.601 C 913.797 543.819 908.703 569.882 903.333 579.926 C 897.202 598.785 887.36 617.253 881.55 634.919 C 889.135 636.305 891.131 634.849 897.927 638.656 Z" style="paint-order: fill; fill-rule: nonzero; stroke: rgb(0, 0, 0); fill: rgb(217, 119, 6); stroke-width: 0px;"></path><path d="M 910.636 959.375 C 917.637 961.994 921.804 959.954 929.031 956.315 C 957.646 941.907 987.962 932.808 1018.28 922.592 C 1133.76 884.157 1252.85 857.592 1373.72 843.308 C 1385.78 841.987 1402.84 840.737 1414.69 840.963 C 1452.37 841.681 1529.57 829.877 1563.01 845.458 C 1592.99 838.399 1632.3 847.945 1660.04 860.236 C 1665.14 862.498 1662.32 869.76 1664.73 871.25 C 1670.38 874.734 1679.59 874.681 1685.36 877.711 C 1682.64 878.713 1680.16 879.055 1678.76 881.064 C 1680.82 884.161 1685.26 883.93 1689.04 884.432 L 1689.24 885.507 C 1685.71 886.657 1683.92 886.488 1682.19 889.016 C 1684.84 891.678 1690.66 891.083 1691.85 893.442 C 1688.94 894.295 1685.25 894.961 1683.24 896.972 C 1685.16 904.494 1699.11 905.041 1702.89 914.931 C 1698.33 917.44 1697.13 915.283 1694.33 918.149 L 1694.25 920.257 C 1689.21 922.78 1677.6 921.695 1670.93 922.398 C 1673.05 923.7 1678.87 926.828 1679.62 928.711 C 1675.76 929.629 1672.42 929.147 1670.14 931.155 C 1670.45 938.999 1681.19 939.146 1684.72 944.026 L 1684.01 944.952 C 1673.25 945.257 1657.67 941.463 1649.52 944.656 C 1650.76 946.618 1651.31 947.221 1652.87 948.956 L 1652.01 950.727 C 1642.29 953.788 1605.94 954.28 1594.79 954.322 C 1594.79 954.322 1543.32 963.624 1537.72 958.336 C 1527.19 959.255 1517.06 960.583 1506.6 961.924 C 1499.88 962.786 1491.85 961.521 1485.03 962.21 C 1453.66 965.376 1422.68 967.975 1391.83 974.769 C 1384.5 976.381 1373.54 976.613 1365.5 977.853 C 1339.27 982.138 1313.14 987.092 1287.16 992.711 C 1282.68 993.641 1260.81 997.389 1258.86 999.609 C 1259.74 1011.24 1274.46 1015.91 1273.01 1016.55 C 1274.22 1021.72 1287.87 1027.64 1292.51 1029.94 L 1283.13 1039.42 C 1278.82 1040.19 1273.33 1040.81 1269.69 1043 C 1269.11 1044.96 1269.39 1045.23 1269.94 1047.2 C 1268.03 1050.2 1267.26 1050.51 1264.31 1052.67 L 1264.64 1054.2 C 1267.36 1055.72 1268.04 1055.91 1271.06 1056.71 L 1270.69 1066.44 C 1228.87 1071.65 1187.25 1068.23 1145.93 1080.82 C 1136.61 1083.66 1124.37 1083.97 1117.21 1091.8 C 1111.18 1098.18 1119.67 1148.81 1111.76 1150.02 C 1107.24 1138.23 1115.63 1099.42 1106.58 1093.62 C 1100.01 1094.65 1098.67 1101.45 1097.42 1107.05 C 1099.72 1125.96 1096.838 1178.278 1096.935 1178.255 C 1096.963 1178.248 1097.133 1199.733 1097.142 1199.785 C 1097.143 1199.791 1099.337 1210.437 1098.247 1221.817 C 1096.118 1224.694 1095.848 1223.098 1095.299 1222.045 C 1093.239 1219.145 1093.98 1133.78 1092.23 1115.71 C 1092.08 1114.01 1092.25 1110.27 1091.24 1109.05 C 1088.73 1106.02 1082.77 1093.7 1079.26 1093.36 C 1066.14 1092.07 951.768 1124.45 944.136 1131.27 C 943.693 1131.67 883.577 1153.32 884.998 1149.84 C 875.88 1145.81 831.305 1171.02 827.057 1170.42 C 826.591 1167.94 826.268 1166.52 825.546 1164.11 C 817.004 1158.99 795.485 1177.94 787.569 1181.45 C 770.038 1189.22 751.1 1194.3 734.125 1203.3 C 731.04 1204.98 726.509 1209.81 723.371 1212.16 C 710.142 1210.23 704.661 1195.43 698.8 1198.47 C 697.867 1201.21 697.611 1202.47 697.069 1205.33 C 695.026 1204.71 692.368 1204.18 690.247 1203.7 C 689.743 1200.19 689.88 1197.92 687.438 1195.52 C 679.882 1192.69 675.918 1198.74 674.708 1205.56 L 668.685 1204.95 C 666.661 1206.38 666.093 1206.56 663.769 1207.5 C 662.122 1204.91 664.689 1200.55 664.369 1194.94 C 660.742 1190.66 651.204 1192.71 645.263 1187.55 C 645.002 1179.29 655.126 1180.19 646.093 1171.45 C 646.898 1169.23 647.606 1168.02 647.168 1165.71 C 644.688 1164.47 643.585 1162.06 648.608 1156.59 C 649.123 1153.32 649.343 1154.67 647.486 1151.6 C 645.092 1150.72 643.977 1150.46 641.47 1149.92 C 640.515 1146.34 644.169 1148.4 645.28 1143.23 C 643.197 1140.5 640.826 1140.38 637.365 1139.49 C 648.248 1130.99 660.339 1122.66 668.68 1111.6 C 677.862 1098.54 693.391 1091.95 705.188 1081.98 C 758.955 1036.54 822.184 1008.48 883.376 975.036 C 890.986 970.877 899.682 962.509 908.438 957.187 L 910.636 959.375 Z M 1093.66 1004.84 C 1095.14 1005.25 1102.42 1007.28 1103.44 1006.76 C 1124.43 996.206 1146.24 987.924 1168.15 979.467 C 1178.45 975.489 1188.02 972.338 1198.62 969.19 C 1207.05 966.685 1216.82 964.1 1224.95 960.853 C 1237.59 955.804 1250.48 949.515 1262.79 943.686 C 1245.56 944.444 1218.98 952.688 1201.81 957.167 C 1180.47 962.736 1157.8 968.212 1136.66 974.328 C 1125.18 977.649 1101.58 983.149 1092.02 987.47 C 1092.32 994.039 1092.55 998.259 1093.66 1004.84 Z M 1090.01 1004.35 C 1090.06 997.579 1090 994.812 1088.95 988.183 C 1062.05 997.359 1034.78 1006.63 1008.76 1018.09 C 993.42 1024.85 952.929 1034.46 942.369 1045.78 C 944.416 1047.07 947.814 1046.41 950.112 1045.73 C 978.505 1037.36 1007.83 1029.36 1036.03 1020.69 C 1046.95 1017.33 1082.45 1009.39 1090.01 1004.35 Z M 734.251 1148.41 C 743.234 1144.23 776.355 1129.32 780.467 1121.7 L 779.738 1120.09 L 778.323 1119.78 C 768.434 1126.16 735.497 1140.3 731.794 1147.72 C 732.99 1148.19 733.046 1148.38 734.251 1148.41 Z" style="paint-order: fill; fill-rule: nonzero; stroke: rgb(0, 0, 0); fill: rgb(217, 119, 6); stroke-width: 0px;"></path></g></svg></svg><style>@media (prefers-color-scheme: light) { :root { filter: none; } }
@media (prefers-color-scheme: dark) { :root { filter: none; } }
</style></svg>